<svg width="29" height="23" viewBox="0 0 29 23" fill="none" xmlns="http://www.w3.org/2000/svg">
<path d="M26.1927 11.985V20.901C26.1927 21.5576 25.6605 22.0898 25.0039 22.0898H23.8151C23.1585 22.0898 22.6263 21.5576 22.6263 20.901V19.7122H5.98307V20.901C5.98307 21.5576 5.45082 22.0898 4.79427 22.0898H3.60547C2.94892 22.0898 2.41667 21.5576 2.41667 20.901V11.985L0.939537 11.6158C0.410322 11.4835 0.0390625 11.0079 0.0390625 10.4624V9.60742C0.0390625 9.27919 0.305185 9.01302 0.633464 9.01302H2.86247L5.40453 2.23417C5.75253 1.3062 6.63966 0.691406 7.63075 0.691406H20.9786C21.9697 0.691406 22.8568 1.3062 23.2049 2.23417L25.7469 9.01302H27.9759C28.3041 9.01302 28.5703 9.27919 28.5703 9.60742V10.4624C28.5703 11.0079 28.1991 11.4835 27.6698 11.6158L26.1927 11.985ZM4.79427 13.7682V16.1458C4.79427 16.8024 5.32652 17.3346 5.98307 17.3346H9.84069C9.93846 17.3346 10.0347 17.3105 10.1209 17.2644C10.4104 17.1096 10.5196 16.7495 10.3648 16.46C9.40518 14.6655 7.54839 13.7682 4.79427 13.7682ZM23.8151 13.7682C21.061 13.7682 19.2041 14.6655 18.2445 16.46C18.0897 16.7495 18.199 17.1096 18.4884 17.2644C18.5746 17.3105 18.6709 17.3346 18.7686 17.3346H22.6263C23.2829 17.3346 23.8151 16.8024 23.8151 16.1458V13.7682ZM7.17188 3.06901L5.31585 8.63712C5.27544 8.75826 5.25485 8.88523 5.25485 9.01302C5.25485 9.6696 5.78709 10.2018 6.44365 10.2018H22.1658C22.2936 10.2018 22.4204 10.1813 22.5417 10.1408C23.1645 9.93315 23.5011 9.25994 23.2936 8.63712L21.4375 3.06901H7.17188Z" fill="#00B0F0"/>
</svg>
