<svg width="39" height="29" viewBox="0 0 39 29" fill="none" xmlns="http://www.w3.org/2000/svg">
<path d="M35.529 15.3603V27.2248C35.529 28.0985 34.8207 28.8067 33.947 28.8067H32.3651C31.4914 28.8067 30.7832 28.0985 30.7832 27.2248V25.6429H8.6362V27.2248C8.6362 28.0985 7.92794 28.8067 7.05427 28.8067H5.47234C4.59868 28.8067 3.89042 28.0985 3.89042 27.2248V15.3603L1.92482 14.869C1.22059 14.6929 0.726562 14.0602 0.726562 13.3342V12.1965C0.726562 11.7597 1.08069 11.4055 1.51753 11.4055H4.48364L7.86634 2.38498C8.32941 1.15012 9.50991 0.332031 10.8287 0.332031H28.5906C29.9095 0.332031 31.0899 1.15012 31.5531 2.38498L34.9357 11.4055H37.9018C38.3386 11.4055 38.6928 11.7597 38.6928 12.1965V13.3342C38.6928 14.0602 38.1988 14.6929 37.4945 14.869L35.529 15.3603ZM7.05427 17.7332V20.8971C7.05427 21.7708 7.76253 22.479 8.6362 22.479H13.7695C13.8996 22.479 14.0277 22.4469 14.1424 22.3855C14.5276 22.1796 14.6729 21.7004 14.4669 21.3152C13.19 18.9273 10.7192 17.7332 7.05427 17.7332ZM32.3651 17.7332C28.7003 17.7332 26.2293 18.9273 24.9524 21.3152C24.7464 21.7004 24.8918 22.1796 25.277 22.3855C25.3917 22.4469 25.5198 22.479 25.6498 22.479H30.7832C31.6569 22.479 32.3651 21.7708 32.3651 20.8971V17.7332ZM10.2181 3.49589L7.74832 10.9053C7.69455 11.0665 7.66716 11.2355 7.66716 11.4055C7.66716 12.2792 8.3754 12.9874 9.24908 12.9874H30.1703C30.3404 12.9874 30.5092 12.9601 30.6705 12.9063C31.4993 12.6299 31.9473 11.7341 31.6711 10.9053L29.2012 3.49589H10.2181Z" fill="black"/>
</svg>
