<svg width="39" height="29" viewBox="0 0 39 29" fill="none" xmlns="http://www.w3.org/2000/svg">
<path d="M34.9098 15.5205V27.3849C34.9098 28.2586 34.2016 28.9669 33.3279 28.9669H31.746C30.8723 28.9669 30.164 28.2586 30.164 27.3849V25.803H8.01706V27.3849C8.01706 28.2586 7.3088 28.9669 6.43513 28.9669H4.8532C3.97954 28.9669 3.27128 28.2586 3.27128 27.3849V15.5205L1.30567 15.0291C0.601453 14.8531 0.107422 14.2203 0.107422 13.4944V12.3566C0.107422 11.9199 0.461549 11.5657 0.898385 11.5657H3.8645L7.2472 2.54513C7.71027 1.31028 8.89077 0.492188 10.2096 0.492188H27.9715C29.2903 0.492188 30.4708 1.31028 30.934 2.54513L34.3166 11.5657H37.2827C37.7195 11.5657 38.0737 11.9199 38.0737 12.3566V13.4944C38.0737 14.2203 37.5796 14.8531 36.8754 15.0291L34.9098 15.5205ZM6.43513 17.8934V21.0572C6.43513 21.9309 7.14339 22.6392 8.01706 22.6392H13.1503C13.2804 22.6392 13.4085 22.6071 13.5233 22.5457C13.9084 22.3397 14.0537 21.8605 13.8478 21.4753C12.5708 19.0874 10.1 17.8934 6.43513 17.8934ZM31.746 17.8934C28.0811 17.8934 25.6101 19.0874 24.3332 21.4753C24.1272 21.8605 24.2726 22.3397 24.6578 22.5457C24.7725 22.6071 24.9006 22.6392 25.0307 22.6392H30.164C31.0377 22.6392 31.746 21.9309 31.746 21.0572V17.8934ZM9.59898 3.65604L7.12918 11.0655C7.07541 11.2267 7.04802 11.3956 7.04802 11.5657C7.04802 12.4394 7.75626 13.1476 8.62994 13.1476H29.5512C29.7213 13.1476 29.89 13.1202 30.0514 13.0665C30.8802 12.7901 31.3282 11.8942 31.052 11.0655L28.5821 3.65604H9.59898Z" fill="#2C2F93"/>
</svg>
