<svg width="47" height="46" viewBox="0 0 47 46" fill="none" xmlns="http://www.w3.org/2000/svg">
<path d="M5.49554 45.7087C4.18282 45.7087 3.08683 45.2691 2.20757 44.3898C1.3283 43.5106 0.888672 42.4146 0.888672 41.1019V31.4504H3.74034V41.1019C3.74034 41.541 3.92309 41.9433 4.28857 42.3088C4.65406 42.6743 5.05639 42.8571 5.49554 42.8571H15.147V45.7087H5.49554ZM32.257 45.7087V42.8571H41.9085C42.3477 42.8571 42.75 42.6743 43.1155 42.3088C43.481 41.9433 43.6637 41.541 43.6637 41.1019V31.4504H46.5154V41.1019C46.5154 42.4146 46.0757 43.5106 45.1965 44.3898C44.3172 45.2691 43.2212 45.7087 41.9085 45.7087H32.257ZM0.888672 14.3404V4.6889C0.888672 3.37618 1.3283 2.28019 2.20757 1.40093C3.08683 0.521664 4.18282 0.0820312 5.49554 0.0820312H15.147V2.9337H5.49554C5.05639 2.9337 4.65406 3.11645 4.28857 3.48193C3.92309 3.84742 3.74034 4.24975 3.74034 4.6889V14.3404H0.888672ZM43.6637 14.3404V4.6889C43.6637 4.24975 43.481 3.84742 43.1155 3.48193C42.75 3.11645 42.3477 2.9337 41.9085 2.9337H32.257V0.0820312H41.9085C43.2212 0.0820312 44.3172 0.521664 45.1965 1.40093C46.0757 2.28019 46.5154 3.37618 46.5154 4.6889V14.3404H43.6637ZM23.702 34.3021C20.5248 34.3021 17.8295 33.1951 15.6161 30.9813C13.4023 28.7679 12.2953 26.0726 12.2953 22.8954C12.2953 19.7181 13.4023 17.0228 15.6161 14.8095C17.8295 12.5956 20.5248 11.4887 23.702 11.4887C26.8793 11.4887 29.5746 12.5956 31.7879 14.8095C34.0018 17.0228 35.1087 19.7181 35.1087 22.8954C35.1087 26.0726 34.0018 28.7679 31.7879 30.9813C29.5746 33.1951 26.8793 34.3021 23.702 34.3021ZM23.702 31.4504C26.0784 31.4504 28.0983 30.6187 29.7618 28.9552C31.4253 27.2917 32.257 25.2718 32.257 22.8954C32.257 20.519 31.4253 18.4991 29.7618 16.8356C28.0983 15.1721 26.0784 14.3404 23.702 14.3404C21.3256 14.3404 19.3057 15.1721 17.6422 16.8356C15.9788 18.4991 15.147 20.519 15.147 22.8954C15.147 25.2718 15.9788 27.2917 17.6422 28.9552C19.3057 30.6187 21.3256 31.4504 23.702 31.4504Z" fill="white"/>
</svg>
