<svg width="22" height="22" viewBox="0 0 22 22" fill="none" xmlns="http://www.w3.org/2000/svg">
<path d="M7.7875 0.476562V2.57656H14.0875V0.476562H16.1875V2.57656H20.3875C20.9674 2.57656 21.4375 3.04667 21.4375 3.62656V20.4266C21.4375 21.0065 20.9674 21.4766 20.3875 21.4766H1.4875C0.907606 21.4766 0.4375 21.0065 0.4375 20.4266V3.62656C0.4375 3.04667 0.907606 2.57656 1.4875 2.57656H5.6875V0.476562H7.7875ZM19.3375 10.9766H2.5375V19.3766H19.3375V10.9766ZM9.8875 13.0766V17.2766H4.6375V13.0766H9.8875ZM5.6875 4.67656H2.5375V8.87656H19.3375V4.67656H16.1875V6.77656H14.0875V4.67656H7.7875V6.77656H5.6875V4.67656Z" fill="#00B0F0"/>
</svg>
