<svg width="21" height="20" viewBox="0 0 21 20" fill="none" xmlns="http://www.w3.org/2000/svg">
<path d="M18.7294 6.60334C19.7159 6.60334 20.5156 7.40306 20.5156 8.38956V11.962C20.5156 12.9485 19.7159 13.7482 18.7294 13.7482H17.781C17.3415 17.2727 14.3349 20 10.6914 20V18.2138C13.6509 18.2138 16.0501 15.8146 16.0501 12.8551V7.49645C16.0501 4.53694 13.6509 2.13778 10.6914 2.13778C7.7319 2.13778 5.33274 4.53694 5.33274 7.49645V13.7482H2.65341C1.66691 13.7482 0.867188 12.9485 0.867188 11.962V8.38956C0.867188 7.40306 1.66691 6.60334 2.65341 6.60334H3.60179C4.04129 3.07885 7.04785 0.351562 10.6914 0.351562C14.3349 0.351562 17.3415 3.07885 17.781 6.60334H18.7294ZM6.90412 13.5561L7.85094 12.0412C8.67441 12.557 9.64807 12.8551 10.6914 12.8551C11.7347 12.8551 12.7084 12.557 13.5319 12.0412L14.4787 13.5561C13.3807 14.2438 12.0825 14.6413 10.6914 14.6413C9.3003 14.6413 8.00209 14.2438 6.90412 13.5561Z" fill="#333333"/>
</svg>
