<svg width="29" height="38" viewBox="0 0 29 38" fill="none" xmlns="http://www.w3.org/2000/svg">
<path d="M14.0915 33.9195L4.22537 24.0535C-1.22356 18.6044 -1.22356 9.77001 4.22537 4.32108C9.67431 -1.12786 18.5087 -1.12786 23.9578 4.32108C29.4067 9.77001 29.4067 18.6044 23.9578 24.0535L14.0915 33.9195ZM21.7652 21.8609C26.0033 17.6229 26.0033 10.7516 21.7652 6.51355C17.5272 2.27549 10.6559 2.27549 6.41785 6.51355C2.17979 10.7516 2.17979 17.6229 6.41785 21.8609L14.0915 29.5346L21.7652 21.8609ZM14.0915 17.2879C12.3791 17.2879 10.9909 15.8997 10.9909 14.1872C10.9909 12.4748 12.3791 11.0866 14.0915 11.0866C15.804 11.0866 17.1922 12.4748 17.1922 14.1872C17.1922 15.8997 15.804 17.2879 14.0915 17.2879Z" fill="#2C2F93"/>
<rect x="2.63867" y="33.9165" width="22.952" height="3.18542" fill="#2C2F93"/>
</svg>
