<svg width="29" height="37" viewBox="0 0 29 37" fill="none" xmlns="http://www.w3.org/2000/svg">
<path d="M14.7107 33.7594L4.84451 23.8933C-0.604421 18.4443 -0.604421 9.60986 4.84451 4.16092C10.2935 -1.28802 19.1278 -1.28802 24.5769 4.16092C30.0258 9.60986 30.0258 18.4443 24.5769 23.8933L14.7107 33.7594ZM22.3843 21.7007C26.6224 17.4627 26.6224 10.5915 22.3843 6.3534C18.1463 2.11534 11.2751 2.11534 7.03699 6.3534C2.79893 10.5915 2.79893 17.4627 7.03699 21.7007L14.7107 29.3745L22.3843 21.7007ZM14.7107 17.1277C12.9982 17.1277 11.61 15.7396 11.61 14.0271C11.61 12.3146 12.9982 10.9264 14.7107 10.9264C16.4232 10.9264 17.8113 12.3146 17.8113 14.0271C17.8113 15.7396 16.4232 17.1277 14.7107 17.1277Z" fill="black"/>
<rect x="3.25771" y="33.7563" width="22.952" height="3.18542" fill="black"/>
</svg>
