<svg width="32" height="32" viewBox="0 0 32 32" fill="none" xmlns="http://www.w3.org/2000/svg">
<path d="M29.8891 31.5273L18.2124 19.8506C17.2799 20.6444 16.2076 21.2588 14.9955 21.694C13.7833 22.1291 12.5653 22.3467 11.3413 22.3467C8.35443 22.3467 5.82647 21.3128 3.75741 19.245C1.68867 17.1771 0.654297 14.6507 0.654297 11.6657C0.654297 8.6804 1.6882 6.15182 3.75601 4.07997C5.82383 2.00843 8.35024 0.972656 11.3352 0.972656C14.3206 0.972656 16.8491 2.00703 18.921 4.07577C20.9925 6.14483 22.0283 8.67279 22.0283 11.6597C22.0283 12.9554 21.7988 14.2094 21.3397 15.4215C20.8806 16.6337 20.2781 17.6701 19.5322 18.5307L31.209 30.208L29.8891 31.5273ZM11.3413 20.4818C13.8157 20.4818 15.9046 19.63 17.6081 17.9265C19.3117 16.2233 20.1635 14.1343 20.1635 11.6597C20.1635 9.185 19.3117 7.09606 17.6081 5.39282C15.9046 3.68928 13.8157 2.83751 11.3413 2.83751C8.86664 2.83751 6.7777 3.68928 5.07447 5.39282C3.37092 7.09606 2.51915 9.185 2.51915 11.6597C2.51915 14.1343 3.37092 16.2233 5.07447 17.9265C6.7777 19.63 8.86664 20.4818 11.3413 20.4818Z" fill="#242424"/>
</svg>
