<svg width="810" height="771" viewBox="0 0 810 771" fill="none" xmlns="http://www.w3.org/2000/svg">
<path d="M346.186 487.123V347.396H412.214L346.186 487.123Z" fill="#F9FEFF" stroke="#7FD6F7"/>
<path d="M422.423 347.725H469.353V389.549H402.663L422.423 347.725Z" fill="#F9FEFF" stroke="#7FD6F7"/>
<path d="M379.797 436.677L397.634 400.439H463.767V436.677H379.797Z" fill="#F9FEFF" stroke="#7FD6F7"/>
<path d="M355.627 487.525L376.037 445.371H469.27V487.525H355.627Z" fill="#F9FEFF" stroke="#7FD6F7"/>
<path d="M336.335 156.695C336.835 156.695 336.835 156.695 336.835 156.694V156.692L336.835 156.681L336.835 156.639L336.835 156.472L336.836 155.822L336.837 153.354L336.841 144.533C336.844 137.227 336.848 127.471 336.851 117.673C336.856 98.1006 336.856 78.3336 336.835 77.6134C335.991 44.4091 349.3 25.4413 362.779 14.7614C369.529 9.41403 376.332 6.13597 381.448 4.19517C384.006 3.22499 386.14 2.58967 387.632 2.19736C388.378 2.00122 388.963 1.86587 389.361 1.77981C389.365 1.77883 389.37 1.77785 389.374 1.77688L389.127 287.653C370.054 289.721 352.156 295.925 336.385 305.235C328.624 294.831 312.595 273.339 298.527 254.348C291.411 244.741 284.797 235.776 280.009 229.21C277.615 225.926 275.678 223.245 274.364 221.384C273.707 220.452 273.208 219.73 272.886 219.242C272.883 219.237 272.879 219.232 272.876 219.228C302.94 217.997 318.946 202.5 327.417 187.24C331.684 179.551 334.037 171.927 335.324 166.229C335.967 163.379 336.345 161.007 336.561 159.347C336.67 158.516 336.738 157.863 336.779 157.416C336.799 157.193 336.813 157.021 336.822 156.905C336.826 156.846 336.829 156.802 336.831 156.772L336.834 156.737L336.834 156.728L336.834 156.725C336.834 156.725 336.835 156.724 336.335 156.695ZM336.335 156.695L336.835 156.724L336.835 156.71L336.835 156.695L336.335 156.695Z" fill="#F9FEFF" stroke="#7FD6F7"/>
<path d="M469.771 156.404L469.271 156.404L469.271 156.419L469.272 156.434L469.771 156.404ZM469.771 156.404C469.271 156.404 469.271 156.404 469.271 156.403L469.271 156.401L469.271 156.39L469.271 156.348L469.271 156.181L469.27 155.532L469.269 153.064L469.265 144.248C469.262 136.945 469.258 127.193 469.255 117.398C469.25 97.8225 469.25 78.0484 469.271 77.322C470.115 44.1181 456.796 25.1504 443.306 14.4705C436.552 9.1231 429.743 5.84502 424.623 3.9042C422.064 2.93401 419.928 2.29868 418.435 1.90636C417.688 1.71022 417.102 1.57487 416.705 1.48882C416.7 1.4878 416.695 1.4868 416.691 1.4858L417.02 287.482C436.502 289.428 454.73 295.593 470.792 305.065L533.237 218.973C503.227 217.708 487.221 202.221 478.736 186.97C474.456 179.276 472.091 171.647 470.796 165.945C470.148 163.093 469.768 160.72 469.549 159.058C469.439 158.227 469.37 157.574 469.328 157.127C469.307 156.903 469.293 156.731 469.284 156.615C469.28 156.556 469.277 156.512 469.275 156.481L469.273 156.447L469.272 156.438L469.272 156.435C469.272 156.434 469.272 156.434 469.771 156.404Z" fill="#F9FEFF" stroke="#7FD6F7"/>
<path d="M175.135 480.717C178.688 462.954 177.076 448.763 172.586 437.459C168.027 425.98 160.516 417.513 152.501 411.316C144.489 405.12 135.967 401.189 129.369 398.777C126.068 397.571 123.246 396.744 121.205 396.205C120.184 395.935 119.359 395.737 118.768 395.599C118.474 395.531 118.235 395.476 118.064 395.437L118.006 395.424C117.947 395.41 117.898 395.398 117.859 395.389C117.81 395.377 117.789 395.371 117.785 395.37L117.784 395.369L117.778 395.367C107.273 392.018 89.6102 386.102 74.3366 380.961C70.3681 379.625 66.5584 378.341 63.0766 377.167C53.1765 373.829 45.9283 371.385 45.2243 371.198C21.9089 364.969 10.8916 347.204 5.6965 330.919C3.09917 322.777 1.96399 315.022 1.4787 309.3C1.23613 306.44 1.15612 304.091 1.13668 302.457C1.127 301.643 1.13237 301.007 1.14015 300.575L274.754 388.73C272.415 398.56 271.166 408.791 271.166 419.345C271.166 429.693 272.414 439.717 274.633 449.376L175.135 480.717Z" fill="#F9FEFF" stroke="#7FD6F7"/>
<path d="M389.83 655.129V655.711C332.671 621.667 300.174 671.029 300.174 671.029C297.567 674.298 244.979 746.291 244.648 746.829C223.035 782.434 173.106 765.799 167.641 763.847L167.946 763.425M389.83 655.129C389.997 655.228 390.164 655.327 390.33 655.427V550.71M389.83 655.129C361.3 638.239 338.836 642.001 323.468 650.091C315.731 654.164 309.807 659.325 305.819 663.466C303.824 665.537 302.312 667.354 301.296 668.656C300.789 669.307 300.405 669.829 300.148 670.19C300.019 670.37 299.922 670.51 299.857 670.606C299.824 670.653 299.799 670.69 299.783 670.715L299.769 670.735C298.378 672.489 284.616 691.255 271.154 709.658C264.397 718.895 257.711 728.047 252.693 734.923C250.185 738.361 248.093 741.231 246.618 743.257C245.881 744.27 245.297 745.073 244.893 745.631C244.501 746.173 244.256 746.512 244.223 746.567L244.221 746.569C232.916 765.193 213.767 769.383 197.336 768.884C189.125 768.634 181.62 767.213 176.165 765.853C173.438 765.173 171.227 764.509 169.698 764.015C168.938 763.77 168.348 763.567 167.946 763.425M389.83 655.129V551.163M390.33 550.71C370.181 548.724 351.355 542.146 334.888 532.092L335.293 532.385L335.022 532.758M390.33 550.71L390.281 551.208C390.131 551.193 389.981 551.178 389.83 551.163M390.33 550.71H389.83V551.163M335.022 532.758C334.89 532.679 334.759 532.599 334.627 532.518L334.888 532.092L167.457 763.248C167.465 763.251 167.474 763.255 167.483 763.258C167.585 763.296 167.738 763.351 167.938 763.422C167.941 763.423 167.944 763.424 167.946 763.425M335.022 532.758C351.334 542.64 369.934 549.132 389.83 551.163M335.022 532.758L167.946 763.425" fill="#F9FEFF" stroke="#7FD6F7"/>
<path d="M625.618 502.92C625.671 502.939 625.722 502.958 625.771 502.976C612.857 514.028 605.914 525.635 602.809 536.87C599.655 548.277 600.468 559.265 602.955 568.847C605.44 578.428 609.601 586.616 613.16 592.439C614.94 595.352 616.571 597.676 617.77 599.29C618.37 600.096 618.861 600.726 619.209 601.163C619.272 601.242 619.33 601.314 619.383 601.381C619.477 601.497 619.556 601.594 619.618 601.67C619.728 601.806 619.762 601.847 619.759 601.843L619.761 601.846C630.831 617.552 642.956 634.229 652.38 647.138C654.029 649.398 655.595 651.541 657.059 653.544C659.777 657.264 662.14 660.498 664.02 663.085C665.466 665.075 666.625 666.679 667.438 667.826C667.845 668.399 668.164 668.856 668.389 669.188C668.502 669.355 668.589 669.487 668.651 669.585C668.707 669.674 668.73 669.717 668.737 669.728C668.738 669.731 668.739 669.732 668.738 669.731C681.405 700.222 679.595 719.347 674.708 730.815C672.262 736.554 669.035 740.4 666.428 742.808C665.124 744.012 663.974 744.857 663.155 745.399C662.764 745.657 662.448 745.846 662.226 745.973L493.073 517.177C507.176 504.25 518.493 488.313 525.995 470.395C533.143 472.688 557.935 480.677 581.112 488.211C592.95 492.058 604.366 495.787 612.794 498.577C617.008 499.972 620.473 501.132 622.87 501.954C624.069 502.365 624.998 502.691 625.618 502.92Z" fill="#F9FEFF" stroke="#7FD6F7"/>
<path d="M625.452 280.107L625.46 280.105C626.503 279.848 635.716 277.168 648.59 273.423C671.048 266.89 704.649 257.116 725.465 251.308C725.477 251.305 725.492 251.302 725.512 251.297C727.658 250.819 775.15 240.244 802.048 285.577L527.123 371.146C519.193 350.831 506.428 332.989 490.183 318.973L553.132 233.393C553.303 233.813 553.54 234.38 553.844 235.072C554.544 236.666 555.599 238.927 557.022 241.604C559.867 246.955 564.189 253.976 570.093 260.639C581.902 273.968 600.094 285.913 625.452 280.107Z" fill="#F9FEFF" stroke="#7FD6F7"/>
<path d="M12.6284 280.735C12.5982 280.724 12.5693 280.713 12.5419 280.702C22.7242 259.799 40.0606 251.918 55.0079 249.287C62.5398 247.962 69.4588 247.972 74.5347 248.324C77.0718 248.5 79.1463 248.762 80.6039 248.984C81.3326 249.095 81.9068 249.196 82.3072 249.272C82.5074 249.31 82.6638 249.341 82.774 249.364C82.8292 249.376 82.8724 249.385 82.9033 249.392C82.9225 249.396 82.9348 249.399 82.9416 249.401C99.5422 254.637 126.599 262.456 149.617 268.976C161.13 272.237 171.636 275.173 179.319 277.3C183.161 278.363 186.298 279.224 188.504 279.822C189.606 280.121 190.477 280.354 191.087 280.514C191.391 280.594 191.632 280.656 191.805 280.699C191.892 280.721 191.963 280.738 192.018 280.75C192.058 280.759 192.126 280.774 192.18 280.779L192.187 280.78L192.194 280.78C216.747 282.301 233.171 272.788 243.448 262.886C248.582 257.939 252.18 252.898 254.496 249.093C255.653 247.19 256.491 245.594 257.04 244.473C257.228 244.091 257.381 243.763 257.503 243.498L314.851 321.01C300.791 333.73 289.474 349.381 281.893 367.093C253.138 357.953 185.845 336.557 125.654 317.317C95.4066 307.648 66.9528 298.524 46.0844 291.773C35.6501 288.397 27.1131 285.615 21.1968 283.656C18.2383 282.676 15.9371 281.902 14.3821 281.362C13.6039 281.092 13.0166 280.882 12.6284 280.735Z" fill="#F9FEFF" stroke="#7FD6F7"/>
<path d="M207.616 571.898L207.619 571.891C215.887 553.366 209.936 535.878 202.065 523.058C198.127 516.644 193.698 511.379 190.295 507.706C188.593 505.869 187.147 504.429 186.148 503.444C186.033 503.331 185.924 503.224 185.822 503.123C185.577 502.883 185.37 502.679 185.202 502.51L282.226 472.336C289.974 490.134 301.578 505.87 315.927 518.553L148.923 747.834C129.42 724.092 130.062 701.904 135.705 685.471C141.018 669.997 150.767 659.615 152.447 657.826C152.568 657.698 152.647 657.614 152.68 657.575L152.684 657.57L152.689 657.564C180.544 622.817 194.147 601.689 200.855 589.088C204.209 582.786 205.843 578.61 206.673 575.924C207.088 574.58 207.3 573.611 207.426 572.939C207.47 572.705 207.504 572.503 207.532 572.341C207.543 572.274 207.553 572.214 207.562 572.162C207.599 571.95 207.616 571.898 207.616 571.898Z" fill="#F9FEFF" stroke="#7FD6F7"/>
<path d="M483.798 648.956L483.794 648.953C467.209 639.596 450.475 641.098 437.921 644.918C431.643 646.828 426.4 649.321 422.726 651.336C420.889 652.344 419.443 653.233 418.455 653.871C418.154 654.065 417.896 654.236 417.682 654.38V551.036C437.33 548.967 455.644 542.638 471.75 532.96L472.32 533.727C481.25 545.732 522.437 601.108 561.982 654.393C582.47 682.001 602.517 709.047 617.409 729.209C624.855 739.29 631.011 747.65 635.289 753.498C637.428 756.422 639.097 758.717 640.222 760.286C640.785 761.07 641.21 761.671 641.49 762.076C641.531 762.136 641.569 762.191 641.604 762.242C625.736 770.942 610.775 771.183 597.217 766.623C583.508 762.012 571.209 752.484 560.871 741.759C541.79 721.963 529.509 698.235 527.4 694.159C527.223 693.817 527.117 693.613 527.086 693.562L527.085 693.56C506.858 661.286 486.271 650.279 483.984 649.057C483.892 649.008 483.83 648.974 483.798 648.956Z" fill="#F9FEFF" stroke="#7FD6F7"/>
<path d="M708.186 389.687L708.183 389.688C708.189 389.687 708.184 389.688 708.155 389.693C708.143 389.695 708.129 389.697 708.11 389.7C708.052 389.71 707.973 389.722 707.87 389.738C707.665 389.771 707.373 389.817 707.002 389.879C706.261 390.003 705.202 390.189 703.877 390.448C701.228 390.968 697.515 391.785 693.149 393C684.419 395.429 673.061 399.456 662.357 405.898C651.655 412.339 641.582 421.21 635.466 433.337C629.437 445.29 627.275 460.359 632.078 479.288L533.123 447.556C535.096 438.473 536.181 429.03 536.181 419.344C536.181 410.528 535.299 401.954 533.692 393.622L808.596 307.965C808.61 308.214 808.626 308.537 808.637 308.929C808.667 309.959 808.667 311.461 808.551 313.338C808.318 317.094 807.615 322.349 805.736 328.335C801.983 340.291 793.534 355.174 774.721 366.851L774.65 366.881L774.534 366.932C774.48 366.956 774.417 366.983 774.345 367.014C774.076 367.131 773.677 367.304 773.158 367.526C772.119 367.97 770.601 368.613 768.683 369.406C764.846 370.994 759.409 373.185 753.009 375.598C740.207 380.425 723.567 386.137 708.186 389.687Z" fill="#F9FEFF" stroke="#7FD6F7"/>
</svg>
