<svg width="397" height="781" viewBox="0 0 397 781" fill="none" xmlns="http://www.w3.org/2000/svg">
<path d="M395.415 1.39062C395.415 1.39062 339.425 11.2546 341.144 78.8718C341.166 80.2572 341.144 158.972 341.144 158.972C341.144 158.972 337.563 219.905 275.979 221.881C275.237 221.904 325.519 289.392 341.023 310.165C357.162 300.543 375.513 294.207 395.112 292.117L395.415 1.39062Z" fill="#F9FEFF" stroke="#00AEEF" stroke-miterlimit="10"/>
<path d="M279.355 393.768L1.02694 304.114C1.02694 304.114 -1.6378 364.108 46.0397 376.834C47.9474 377.326 98.2519 394.533 119.539 401.316C120.91 401.763 192.365 414.806 177.142 488.048L279.234 455.897C276.91 445.995 275.646 435.723 275.646 425.124C275.638 414.337 276.948 403.844 279.355 393.768Z" fill="#F9FEFF" stroke="#00AEEF" stroke-miterlimit="10"/>
<path d="M169.744 774.031C169.744 774.031 225.09 795.16 248.27 756.96C248.588 756.408 301.883 683.468 304.54 680.145C304.54 680.145 337.637 629.826 395.913 664.921V558.212C375.489 556.183 356.427 549.536 339.742 539.362L169.744 774.031Z" fill="#F9FEFF" stroke="#00AEEF" stroke-miterlimit="10"/>
<path d="M320.053 325.58L261.164 245.957C261.164 245.957 244.578 287.313 195.136 284.217C194.213 284.126 118.162 263.028 84.55 252.422C83.9217 252.248 33.1706 241.422 12.3827 284.868C12.0193 285.579 228.499 354.423 286.275 372.781C294.004 354.635 305.602 338.579 320.053 325.58Z" fill="#F9FEFF" stroke="#00AEEF" stroke-miterlimit="10"/>
<path d="M286.588 478.209L187.092 509.156C186.471 509.353 226.805 542.405 210.249 579.499C209.719 580.672 211.067 595.797 154.645 666.216C153.676 667.336 110.617 710.032 151.246 758.83L321.108 525.606C306.376 512.631 294.491 496.484 286.588 478.209Z" fill="#F9FEFF" stroke="#00AEEF" stroke-miterlimit="10"/>
</svg>
