<svg width="244" height="60" viewBox="0 0 244 60" fill="none" xmlns="http://www.w3.org/2000/svg">
<g clip-path="url(#clip0_300_871)">
<path d="M32.6802 26.8901H27.4873V37.8792L32.6802 26.8901Z" fill="#2E3192"/>
<path d="M33.3824 26.9155L31.8217 30.219H37.0656V26.9155H33.3824Z" fill="#2E3192"/>
<path d="M36.6348 30.9819H31.4706L30.0566 33.8545H36.6348V30.9819Z" fill="#00AEEF"/>
<path d="M37.0593 34.448H29.8045L28.1927 37.777H37.0593V34.448Z" fill="#2E3192"/>
<path d="M30.8961 0.220215C30.8961 0.220215 26.6351 0.970268 26.766 6.11851C26.7692 6.22383 26.766 12.2179 26.766 12.2179C26.766 12.2179 26.4947 16.8554 21.8061 17.0054C21.7486 17.0086 25.5787 22.1441 26.7596 23.7272C27.9884 22.9963 29.3864 22.5112 30.8769 22.3548L30.8961 0.220215Z" fill="#2E3192"/>
<path d="M42.0288 16.9862C37.3369 16.8362 37.0593 12.1954 37.0593 12.1954C37.0593 12.1954 37.0561 6.20456 37.0593 6.09605C37.1901 0.947807 32.926 0.197754 32.926 0.197754L32.9515 22.3419C34.474 22.4887 35.8975 22.9706 37.1486 23.7143L42.0288 16.9862Z" fill="#00AEEF"/>
<path d="M22.0614 30.0915L0.871595 23.2644C0.871595 23.2644 0.667325 27.8318 4.2995 28.802C4.44313 28.8403 8.27318 30.1489 9.89458 30.666C9.9999 30.7011 15.4386 31.6937 14.28 37.2697L22.0518 34.8216C21.8763 34.0684 21.7773 33.2864 21.7773 32.4789C21.7773 31.6554 21.8763 30.8575 22.0614 30.0915Z" fill="#2E3192"/>
<path d="M13.7151 59.0403C13.7151 59.0403 17.9281 60.6489 19.6931 57.7413C19.7187 57.6998 23.7753 52.1462 23.9764 51.894C23.9764 51.894 26.4979 48.064 30.9312 50.7355V42.6125C29.3768 42.4593 27.9246 41.9519 26.6543 41.1763L13.7151 59.0403Z" fill="#2E3192"/>
<path d="M38.8051 40.0207L51.8943 57.7252C51.8943 57.7252 54.403 56.4963 52.4433 51.779C52.4018 51.68 50.3687 48.9575 48.6611 46.535C48.6324 46.4935 45.08 42.3602 49.1654 38.9196C49.2005 38.8908 42.3798 36.6917 41.3744 36.3694C40.7936 37.7705 39.9094 39.0153 38.8051 40.0207Z" fill="#2E3192"/>
<path d="M41.4607 28.8083L62.7494 22.1823C60.6301 18.5533 56.8224 19.4693 56.7745 19.4789C54.2467 20.1843 49.2804 21.6461 49.0601 21.7004C45.1854 22.5877 43.5002 18.0554 43.5002 18.0554L38.5817 24.7421C39.852 25.8304 40.8478 27.222 41.4607 28.8083Z" fill="#2E3192"/>
<path d="M25.1605 24.8985L20.6762 18.8374C20.6762 18.8374 19.4123 21.9844 15.6492 21.7514C15.579 21.7451 9.78925 20.1396 7.22949 19.3321C7.18162 19.3194 3.31645 18.4959 1.73655 21.8025C1.70782 21.8568 18.1898 27.0976 22.588 28.4955C23.1753 27.1103 24.0594 25.8879 25.1605 24.8985Z" fill="#00AEEF"/>
<path d="M22.6136 36.5195L15.0396 38.875C14.9918 38.891 18.0622 41.406 16.8015 44.2307C16.76 44.3201 16.8653 45.4723 12.5692 50.8312C12.4958 50.9174 9.21794 54.1665 12.3107 57.8817L25.2435 40.1262C24.1201 39.1399 23.2136 37.9111 22.6136 36.5195Z" fill="#00AEEF"/>
<path d="M33.0058 50.6811C33.0058 50.6811 35.5879 48.7948 38.1221 50.2247C38.1827 50.2598 39.8297 51.0705 41.4479 53.6526C41.5053 53.7452 45.3801 61.7276 50.3687 58.9445C50.4102 58.9221 38.2689 42.5997 37.222 41.1921C35.9677 41.9518 34.5378 42.4465 33.0026 42.6029V50.6811H33.0058Z" fill="#00AEEF"/>
<path d="M41.9458 30.4681C42.0734 31.1192 42.1437 31.7895 42.1437 32.4789C42.1437 33.2353 42.0575 33.9726 41.9011 34.6811L49.6346 37.1611C48.0707 31.2245 55.3925 30.2447 55.4595 30.2287C57.8373 29.6797 60.6014 28.4637 60.6014 28.4637C63.525 26.6508 63.2313 23.8357 63.2313 23.8357L41.9458 30.4681Z" fill="#00AEEF"/>
<path d="M88.7619 22.1313C88.7172 22.1249 76.8664 19.4088 73.6395 32.1629C73.6044 32.3065 71.4724 45.3702 84.7786 47.8406C84.7786 47.8406 89.9045 48.9481 94.657 46.6788C94.7017 46.6596 96.9742 41.6391 96.9742 41.6391C96.9742 41.6391 92.7898 45.1659 88.3565 44.4095C88.2065 44.3839 79.2282 44.269 79.0303 34.2534H97.0252C97.0284 34.2534 97.7498 24.2474 88.7619 22.1313ZM79.2825 30.9532C80.1411 25.2081 86.033 25.4986 86.1894 25.5081C91.7174 25.8018 91.7334 30.9532 91.7334 30.9532H79.2825Z" fill="#2E3192"/>
<path d="M132.514 22.8367H118.853C118.853 22.8367 106.428 23.1431 106.604 36.7494C106.604 36.8579 107.098 50.2631 122.179 47.7895C122.288 47.7704 124.598 43.7041 124.598 43.7041C124.598 43.7041 120.063 46.2256 115.78 43.0498C115.652 42.9604 110.079 39.7272 112.454 31.7575C112.476 31.6905 115.125 23.5931 125.91 27.4232C125.958 27.4391 125.91 55.5996 125.91 55.5996C125.91 55.5996 125.355 57.3647 123.794 58.5743H132.265C132.265 58.5743 130.449 57.0614 130.5 55.4975V25.157C130.497 25.157 131.659 23.8453 132.514 22.8367Z" fill="#2E3192"/>
<path d="M165.756 45.367C165.762 45.3191 165.756 22.7345 165.756 22.7345L165.43 22.3803L164.067 23.0346H159.028C159.028 23.0346 160.818 24.3176 160.84 25.6071C160.844 25.7603 160.84 37.8537 160.84 37.8537C160.84 37.8537 160.84 44.0041 155.293 44.2563C155.249 44.2563 150.321 44.8723 149.749 38.9612C149.743 38.8942 149.749 22.2271 149.749 22.2271L148.54 22.8335H143.299C143.299 22.8335 144.946 24.4198 144.936 25.7571C144.936 25.9167 144.936 36.9983 144.936 36.9983C144.936 36.9983 144.157 47.9874 152.523 48.3385C152.523 48.3385 157.492 49.6854 160.939 44.5595C160.981 44.5052 160.939 47.7863 160.939 47.7863H167.444C167.447 47.7895 165.676 46.3245 165.756 45.367Z" fill="#2E3192"/>
<path d="M184.178 44.8149C184.175 44.767 184.178 22.8878 184.178 22.8878C184.178 22.8878 184.596 22.1824 183.725 22.3835C183.629 22.4058 182.921 23.242 181.861 23.1654C181.765 23.1591 177.68 23.1654 177.68 23.1654C177.68 23.1654 179.595 24.6528 179.442 26.0635C179.407 26.4114 179.442 44.5116 179.442 44.5116C179.442 44.5116 179.371 46.6469 177.527 47.7895C177.377 47.8853 185.994 47.7895 185.994 47.7895C185.994 47.7895 184.389 46.6309 184.178 44.8149Z" fill="#2E3192"/>
<path d="M210.191 23.1398H204.343V15.2244L202.176 15.2754C202.176 15.2754 203.207 23.7367 196.176 24.8538C196.067 24.8729 196.176 26.8199 196.176 26.8199H199.53V39.3218C199.53 39.3218 198.697 50.6109 208.276 48.3959C208.375 48.3735 210.848 44.6137 210.848 44.6137C210.848 44.6137 208.831 45.6127 207.168 44.7637C207.079 44.719 203.587 44.02 204.193 38.31C204.197 38.2622 204.193 26.9699 204.193 26.9699H208.882C208.882 26.9699 210.293 27.1199 210.896 27.8285C210.96 27.9051 210.896 22.8366 210.896 22.8366L210.191 23.1398Z" fill="#2E3192"/>
<path d="M236.452 23.4431C236.452 23.4431 238.367 24.7549 237.914 26.2167C237.888 26.3124 231.866 42.9541 231.866 42.9541L224.707 25.5624C224.707 25.5624 223.813 23.1239 221.177 23.2931C221.068 23.3027 217.043 23.3952 217.043 23.3952C217.043 23.3952 219.466 24.857 219.562 25.6645C219.571 25.7603 227.324 44.0105 227.324 44.0105C227.324 44.0105 228.179 46.0915 229.695 47.5374C229.727 47.5725 228.17 52.7909 226.063 54.2432C226.009 54.2846 224.148 56.7742 220.57 54.141C220.449 54.0548 216.134 57.62 216.134 57.62C216.134 57.62 221.202 60.4766 226.871 57.9232C226.973 57.8785 230.299 56.088 232.316 51.7217C232.354 51.6291 243.506 23.4942 243.506 23.4942L236.452 23.4431Z" fill="#2E3192"/>
<path d="M181.768 19.9131C183.61 19.9131 185.104 18.4226 185.104 16.5809C185.104 14.7393 183.61 13.2456 181.768 13.2456C179.927 13.2456 178.436 14.7393 178.436 16.5809C178.436 18.4226 179.927 19.9131 181.768 19.9131Z" fill="#2E3192"/>
</g>
<defs>
<clipPath id="clip0_300_871">
<rect width="242.641" height="59.3404" fill="white" transform="translate(0.868408 0.197754)"/>
</clipPath>
</defs>
</svg>
